<mxfile host="65bd71144e">
    <diagram id="rdODWdrBdJmjJpQyNMHk" name="Page-1">
        <mxGraphModel dx="808" dy="568" grid="1" gridSize="10" guides="1" tooltips="1" connect="1" arrows="1" fold="1" page="1" pageScale="1" pageWidth="850" pageHeight="1100" math="0" shadow="0">
            <root>
                <mxCell id="0"/>
                <mxCell id="1" parent="0"/>
                <mxCell id="2" value="Transport Company" style="ellipse;shape=cloud;whiteSpace=wrap;html=1;" vertex="1" parent="1">
                    <mxGeometry x="320" y="190" width="140" height="90" as="geometry"/>
                </mxCell>
                <mxCell id="3" value="Route (ID)" style="ellipse;shape=cloud;whiteSpace=wrap;html=1;" vertex="1" parent="1">
                    <mxGeometry x="390" y="110" width="120" height="80" as="geometry"/>
                </mxCell>
                <mxCell id="8" value="Distance (km)" style="ellipse;shape=cloud;whiteSpace=wrap;html=1;" vertex="1" parent="1">
                    <mxGeometry x="490" y="160" width="120" height="80" as="geometry"/>
                </mxCell>
                <mxCell id="9" value="Source" style="ellipse;shape=cloud;whiteSpace=wrap;html=1;" vertex="1" parent="1">
                    <mxGeometry x="440" y="250" width="120" height="80" as="geometry"/>
                </mxCell>
                <mxCell id="10" value="Destination" style="ellipse;shape=cloud;whiteSpace=wrap;html=1;" vertex="1" parent="1">
                    <mxGeometry x="320" y="290" width="120" height="80" as="geometry"/>
                </mxCell>
                <mxCell id="11" value="Bus" style="ellipse;shape=cloud;whiteSpace=wrap;html=1;" vertex="1" parent="1">
                    <mxGeometry x="210" y="250" width="120" height="80" as="geometry"/>
                </mxCell>
                <mxCell id="12" value="Plate Number" style="ellipse;shape=cloud;whiteSpace=wrap;html=1;" vertex="1" parent="1">
                    <mxGeometry x="150" y="340" width="120" height="80" as="geometry"/>
                </mxCell>
                <mxCell id="13" value="Model" style="ellipse;shape=cloud;whiteSpace=wrap;html=1;" vertex="1" parent="1">
                    <mxGeometry x="40" y="380" width="120" height="80" as="geometry"/>
                </mxCell>
                <mxCell id="14" value="Capacity" style="ellipse;shape=cloud;whiteSpace=wrap;html=1;" vertex="1" parent="1">
                    <mxGeometry y="300" width="120" height="80" as="geometry"/>
                </mxCell>
                <mxCell id="15" value="Drivers Name" style="ellipse;shape=cloud;whiteSpace=wrap;html=1;" vertex="1" parent="1">
                    <mxGeometry x="100" y="270" width="120" height="80" as="geometry"/>
                </mxCell>
                <mxCell id="16" value="Station" style="ellipse;shape=cloud;whiteSpace=wrap;html=1;" vertex="1" parent="1">
                    <mxGeometry x="210" y="160" width="120" height="80" as="geometry"/>
                </mxCell>
                <mxCell id="17" value="City" style="ellipse;shape=cloud;whiteSpace=wrap;html=1;" vertex="1" parent="1">
                    <mxGeometry x="90" y="160" width="120" height="80" as="geometry"/>
                </mxCell>
                <mxCell id="18" value="Adress" style="ellipse;shape=cloud;whiteSpace=wrap;html=1;" vertex="1" parent="1">
                    <mxGeometry x="120" y="80" width="120" height="80" as="geometry"/>
                </mxCell>
                <mxCell id="19" value="Telephone Number" style="ellipse;shape=cloud;whiteSpace=wrap;html=1;" vertex="1" parent="1">
                    <mxGeometry y="100" width="120" height="80" as="geometry"/>
                </mxCell>
                <mxCell id="20" value="Order Number" style="ellipse;shape=cloud;whiteSpace=wrap;html=1;" vertex="1" parent="1">
                    <mxGeometry x="220" y="90" width="120" height="80" as="geometry"/>
                </mxCell>
            </root>
        </mxGraphModel>
    </diagram>
    <diagram id="mw9_iL0PL-Ua95CcYiGK" name="Page-2">
        <mxGraphModel dx="1658" dy="568" grid="1" gridSize="10" guides="1" tooltips="1" connect="1" arrows="1" fold="1" page="1" pageScale="1" pageWidth="850" pageHeight="1100" math="0" shadow="0">
            <root>
                <mxCell id="0"/>
                <mxCell id="1" parent="0"/>
                <mxCell id="Li5HW0uEsmT22MtdVUf1-2" style="edgeStyle=none;html=1;exitX=1;exitY=0.5;exitDx=0;exitDy=0;entryX=0;entryY=0.5;entryDx=0;entryDy=0;" edge="1" parent="1" source="2E07k4RqKrN_4riuTDy2-1" target="Li5HW0uEsmT22MtdVUf1-1">
                    <mxGeometry relative="1" as="geometry"/>
                </mxCell>
                <mxCell id="2E07k4RqKrN_4riuTDy2-1" value="Transport Company" style="rounded=0;whiteSpace=wrap;html=1;" vertex="1" parent="1">
                    <mxGeometry x="70" y="70" width="120" height="60" as="geometry"/>
                </mxCell>
                <mxCell id="11LGfPiST1NcyHHXnuKJ-3" value="" style="edgeStyle=none;html=1;" edge="1" parent="1" source="2E07k4RqKrN_4riuTDy2-2" target="11LGfPiST1NcyHHXnuKJ-2">
                    <mxGeometry relative="1" as="geometry"/>
                </mxCell>
                <mxCell id="2E07k4RqKrN_4riuTDy2-2" value="Route" style="rounded=0;whiteSpace=wrap;html=1;" vertex="1" parent="1">
                    <mxGeometry x="420" y="70" width="120" height="60" as="geometry"/>
                </mxCell>
                <mxCell id="Li5HW0uEsmT22MtdVUf1-3" value="" style="edgeStyle=none;html=1;" edge="1" parent="1" source="Li5HW0uEsmT22MtdVUf1-1" target="2E07k4RqKrN_4riuTDy2-2">
                    <mxGeometry relative="1" as="geometry"/>
                </mxCell>
                <mxCell id="Li5HW0uEsmT22MtdVUf1-1" value="has" style="rhombus;whiteSpace=wrap;html=1;" vertex="1" parent="1">
                    <mxGeometry x="270" y="60" width="80" height="80" as="geometry"/>
                </mxCell>
                <mxCell id="uYAhGEktSd8hAnmf_fDl-12" value="" style="edgeStyle=none;html=1;" edge="1" parent="1" source="11LGfPiST1NcyHHXnuKJ-1" target="uYAhGEktSd8hAnmf_fDl-11">
                    <mxGeometry relative="1" as="geometry"/>
                </mxCell>
                <mxCell id="11LGfPiST1NcyHHXnuKJ-1" value="Bus" style="rounded=0;whiteSpace=wrap;html=1;" vertex="1" parent="1">
                    <mxGeometry x="420" y="330" width="120" height="60" as="geometry"/>
                </mxCell>
                <mxCell id="11LGfPiST1NcyHHXnuKJ-4" value="" style="edgeStyle=none;html=1;" edge="1" parent="1" source="11LGfPiST1NcyHHXnuKJ-2" target="11LGfPiST1NcyHHXnuKJ-1">
                    <mxGeometry relative="1" as="geometry"/>
                </mxCell>
                <mxCell id="11LGfPiST1NcyHHXnuKJ-2" value="driven by&amp;nbsp;" style="rhombus;whiteSpace=wrap;html=1;" vertex="1" parent="1">
                    <mxGeometry x="440" y="190" width="80" height="80" as="geometry"/>
                </mxCell>
                <mxCell id="V0FEqjwuA7EDgYyJiWbl-2" value="" style="edgeStyle=none;html=1;" edge="1" parent="1" source="YDdx14M0zH7WPmT3Cmj5-1" target="2E07k4RqKrN_4riuTDy2-2">
                    <mxGeometry relative="1" as="geometry"/>
                </mxCell>
                <mxCell id="YDdx14M0zH7WPmT3Cmj5-1" value="Distance (km)" style="ellipse;whiteSpace=wrap;html=1;" vertex="1" parent="1">
                    <mxGeometry x="560" width="120" height="80" as="geometry"/>
                </mxCell>
                <mxCell id="V0FEqjwuA7EDgYyJiWbl-3" value="" style="edgeStyle=none;html=1;" edge="1" parent="1" source="V0FEqjwuA7EDgYyJiWbl-1" target="2E07k4RqKrN_4riuTDy2-2">
                    <mxGeometry relative="1" as="geometry"/>
                </mxCell>
                <mxCell id="V0FEqjwuA7EDgYyJiWbl-1" value="Source" style="ellipse;whiteSpace=wrap;html=1;" vertex="1" parent="1">
                    <mxGeometry x="590" y="90" width="120" height="80" as="geometry"/>
                </mxCell>
                <mxCell id="hMNVjsAFkLvMqV_ZZsmA-2" style="edgeStyle=none;html=1;exitX=0;exitY=0;exitDx=0;exitDy=0;entryX=0.75;entryY=1;entryDx=0;entryDy=0;" edge="1" parent="1" source="hMNVjsAFkLvMqV_ZZsmA-1" target="2E07k4RqKrN_4riuTDy2-2">
                    <mxGeometry relative="1" as="geometry"/>
                </mxCell>
                <mxCell id="hMNVjsAFkLvMqV_ZZsmA-1" value="Destination" style="ellipse;whiteSpace=wrap;html=1;" vertex="1" parent="1">
                    <mxGeometry x="540" y="170" width="120" height="80" as="geometry"/>
                </mxCell>
                <mxCell id="uYAhGEktSd8hAnmf_fDl-4" value="" style="edgeStyle=none;html=1;" edge="1" parent="1" source="hMNVjsAFkLvMqV_ZZsmA-3" target="11LGfPiST1NcyHHXnuKJ-1">
                    <mxGeometry relative="1" as="geometry"/>
                </mxCell>
                <mxCell id="hMNVjsAFkLvMqV_ZZsmA-3" value="Plate Number" style="ellipse;whiteSpace=wrap;html=1;" vertex="1" parent="1">
                    <mxGeometry x="570" y="270" width="120" height="80" as="geometry"/>
                </mxCell>
                <mxCell id="uYAhGEktSd8hAnmf_fDl-7" style="edgeStyle=none;html=1;exitX=0;exitY=0.5;exitDx=0;exitDy=0;entryX=1;entryY=0.75;entryDx=0;entryDy=0;" edge="1" parent="1" source="uYAhGEktSd8hAnmf_fDl-1" target="11LGfPiST1NcyHHXnuKJ-1">
                    <mxGeometry relative="1" as="geometry"/>
                </mxCell>
                <mxCell id="uYAhGEktSd8hAnmf_fDl-1" value="Driver" style="ellipse;whiteSpace=wrap;html=1;" vertex="1" parent="1">
                    <mxGeometry x="600" y="360" width="120" height="80" as="geometry"/>
                </mxCell>
                <mxCell id="uYAhGEktSd8hAnmf_fDl-8" style="edgeStyle=none;html=1;exitX=0.5;exitY=0;exitDx=0;exitDy=0;entryX=0.75;entryY=1;entryDx=0;entryDy=0;" edge="1" parent="1" source="uYAhGEktSd8hAnmf_fDl-2" target="11LGfPiST1NcyHHXnuKJ-1">
                    <mxGeometry relative="1" as="geometry"/>
                </mxCell>
                <mxCell id="uYAhGEktSd8hAnmf_fDl-2" value="Model" style="ellipse;whiteSpace=wrap;html=1;" vertex="1" parent="1">
                    <mxGeometry x="460" y="430" width="120" height="80" as="geometry"/>
                </mxCell>
                <mxCell id="uYAhGEktSd8hAnmf_fDl-9" style="edgeStyle=none;html=1;exitX=1;exitY=0;exitDx=0;exitDy=0;entryX=0.25;entryY=1;entryDx=0;entryDy=0;" edge="1" parent="1" source="uYAhGEktSd8hAnmf_fDl-3" target="11LGfPiST1NcyHHXnuKJ-1">
                    <mxGeometry relative="1" as="geometry"/>
                </mxCell>
                <mxCell id="uYAhGEktSd8hAnmf_fDl-3" value="Capacity" style="ellipse;whiteSpace=wrap;html=1;" vertex="1" parent="1">
                    <mxGeometry x="310" y="420" width="120" height="80" as="geometry"/>
                </mxCell>
                <mxCell id="uYAhGEktSd8hAnmf_fDl-10" value="Bus stop" style="rounded=0;whiteSpace=wrap;html=1;" vertex="1" parent="1">
                    <mxGeometry x="70" y="330" width="120" height="60" as="geometry"/>
                </mxCell>
                <mxCell id="uYAhGEktSd8hAnmf_fDl-13" value="" style="edgeStyle=none;html=1;" edge="1" parent="1" source="uYAhGEktSd8hAnmf_fDl-11" target="uYAhGEktSd8hAnmf_fDl-10">
                    <mxGeometry relative="1" as="geometry"/>
                </mxCell>
                <mxCell id="uYAhGEktSd8hAnmf_fDl-11" value="goes to&amp;nbsp;" style="rhombus;whiteSpace=wrap;html=1;" vertex="1" parent="1">
                    <mxGeometry x="260" y="320" width="80" height="80" as="geometry"/>
                </mxCell>
                <mxCell id="rKB_n0QG6FVqEfjapcQb-4" style="edgeStyle=none;html=1;exitX=0.5;exitY=0;exitDx=0;exitDy=0;entryX=0.75;entryY=1;entryDx=0;entryDy=0;" edge="1" parent="1" source="Isomn833MC6_-DgBmg-z-1" target="uYAhGEktSd8hAnmf_fDl-10">
                    <mxGeometry relative="1" as="geometry"/>
                </mxCell>
                <mxCell id="Isomn833MC6_-DgBmg-z-1" value="City" style="ellipse;whiteSpace=wrap;html=1;" vertex="1" parent="1">
                    <mxGeometry x="100" y="430" width="120" height="80" as="geometry"/>
                </mxCell>
                <mxCell id="rKB_n0QG6FVqEfjapcQb-3" style="edgeStyle=none;html=1;exitX=1;exitY=0;exitDx=0;exitDy=0;entryX=0.19;entryY=0.993;entryDx=0;entryDy=0;entryPerimeter=0;" edge="1" parent="1" source="Isomn833MC6_-DgBmg-z-2" target="uYAhGEktSd8hAnmf_fDl-10">
                    <mxGeometry relative="1" as="geometry"/>
                </mxCell>
                <mxCell id="Isomn833MC6_-DgBmg-z-2" value="Adress" style="ellipse;whiteSpace=wrap;html=1;" vertex="1" parent="1">
                    <mxGeometry x="-30" y="400" width="120" height="80" as="geometry"/>
                </mxCell>
                <mxCell id="rKB_n0QG6FVqEfjapcQb-2" style="edgeStyle=none;html=1;exitX=1;exitY=0.5;exitDx=0;exitDy=0;entryX=0;entryY=0.5;entryDx=0;entryDy=0;" edge="1" parent="1" source="Isomn833MC6_-DgBmg-z-3" target="uYAhGEktSd8hAnmf_fDl-10">
                    <mxGeometry relative="1" as="geometry"/>
                </mxCell>
                <mxCell id="Isomn833MC6_-DgBmg-z-3" value="Order Number" style="ellipse;whiteSpace=wrap;html=1;" vertex="1" parent="1">
                    <mxGeometry x="-80" y="310" width="120" height="80" as="geometry"/>
                </mxCell>
                <mxCell id="rKB_n0QG6FVqEfjapcQb-1" style="edgeStyle=none;html=1;exitX=1;exitY=1;exitDx=0;exitDy=0;" edge="1" parent="1" source="rBpR7RcY8FtFyxjlhTJ4-1" target="uYAhGEktSd8hAnmf_fDl-10">
                    <mxGeometry relative="1" as="geometry"/>
                </mxCell>
                <mxCell id="rBpR7RcY8FtFyxjlhTJ4-1" value="Telephone Number" style="ellipse;whiteSpace=wrap;html=1;" vertex="1" parent="1">
                    <mxGeometry x="-70" y="210" width="120" height="80" as="geometry"/>
                </mxCell>
            </root>
        </mxGraphModel>
    </diagram>
    <diagram id="7RiiwulSfjkvAdUk7b0Y" name="Page-3">
        <mxGraphModel dx="808" dy="568" grid="1" gridSize="10" guides="1" tooltips="1" connect="1" arrows="1" fold="1" page="1" pageScale="1" pageWidth="850" pageHeight="1100" math="0" shadow="0">
            <root>
                <mxCell id="0"/>
                <mxCell id="1" parent="0"/>
                <mxCell id="bGODFt96EP7Lw8mSYGCz-1" value="Transport" style="swimlane;fontStyle=0;childLayout=stackLayout;horizontal=1;startSize=26;horizontalStack=0;resizeParent=1;resizeParentMax=0;resizeLast=0;collapsible=1;marginBottom=0;align=center;fontSize=14;" vertex="1" parent="1">
                    <mxGeometry x="50" y="50" width="160" height="176" as="geometry"/>
                </mxCell>
                <mxCell id="bGODFt96EP7Lw8mSYGCz-2" value="PK id: integer" style="text;strokeColor=none;fillColor=none;spacingLeft=4;spacingRight=4;overflow=hidden;rotatable=0;points=[[0,0.5],[1,0.5]];portConstraint=eastwest;fontSize=12;" vertex="1" parent="bGODFt96EP7Lw8mSYGCz-1">
                    <mxGeometry y="26" width="160" height="30" as="geometry"/>
                </mxCell>
                <mxCell id="bGODFt96EP7Lw8mSYGCz-3" value="FK route_id: string" style="text;strokeColor=none;fillColor=none;spacingLeft=4;spacingRight=4;overflow=hidden;rotatable=0;points=[[0,0.5],[1,0.5]];portConstraint=eastwest;fontSize=12;" vertex="1" parent="bGODFt96EP7Lw8mSYGCz-1">
                    <mxGeometry y="56" width="160" height="30" as="geometry"/>
                </mxCell>
                <mxCell id="bGODFt96EP7Lw8mSYGCz-4" value="FK bus_id: string" style="text;strokeColor=none;fillColor=none;spacingLeft=4;spacingRight=4;overflow=hidden;rotatable=0;points=[[0,0.5],[1,0.5]];portConstraint=eastwest;fontSize=12;" vertex="1" parent="bGODFt96EP7Lw8mSYGCz-1">
                    <mxGeometry y="86" width="160" height="30" as="geometry"/>
                </mxCell>
                <mxCell id="hcgukk1JEExpLeLImCkm-5" value="Price: integer" style="text;strokeColor=none;fillColor=none;spacingLeft=4;spacingRight=4;overflow=hidden;rotatable=0;points=[[0,0.5],[1,0.5]];portConstraint=eastwest;fontSize=12;" vertex="1" parent="bGODFt96EP7Lw8mSYGCz-1">
                    <mxGeometry y="116" width="160" height="30" as="geometry"/>
                </mxCell>
                <mxCell id="f6Qhm0uRsd_cvw-M96xo-1" value="FK bus stop_id: string" style="text;strokeColor=none;fillColor=none;spacingLeft=4;spacingRight=4;overflow=hidden;rotatable=0;points=[[0,0.5],[1,0.5]];portConstraint=eastwest;fontSize=12;" vertex="1" parent="bGODFt96EP7Lw8mSYGCz-1">
                    <mxGeometry y="146" width="160" height="30" as="geometry"/>
                </mxCell>
                <mxCell id="qwVRT2YLgjC-8CceZ_PS-1" value="Route" style="swimlane;fontStyle=0;childLayout=stackLayout;horizontal=1;startSize=26;horizontalStack=0;resizeParent=1;resizeParentMax=0;resizeLast=0;collapsible=1;marginBottom=0;align=center;fontSize=14;" vertex="1" parent="1">
                    <mxGeometry x="490" y="50" width="160" height="146" as="geometry"/>
                </mxCell>
                <mxCell id="qwVRT2YLgjC-8CceZ_PS-2" value="PK id: integer" style="text;strokeColor=none;fillColor=none;spacingLeft=4;spacingRight=4;overflow=hidden;rotatable=0;points=[[0,0.5],[1,0.5]];portConstraint=eastwest;fontSize=12;" vertex="1" parent="qwVRT2YLgjC-8CceZ_PS-1">
                    <mxGeometry y="26" width="160" height="30" as="geometry"/>
                </mxCell>
                <mxCell id="qwVRT2YLgjC-8CceZ_PS-3" value="Distance (km): integer" style="text;strokeColor=none;fillColor=none;spacingLeft=4;spacingRight=4;overflow=hidden;rotatable=0;points=[[0,0.5],[1,0.5]];portConstraint=eastwest;fontSize=12;" vertex="1" parent="qwVRT2YLgjC-8CceZ_PS-1">
                    <mxGeometry y="56" width="160" height="30" as="geometry"/>
                </mxCell>
                <mxCell id="qwVRT2YLgjC-8CceZ_PS-4" value="Soure: string" style="text;strokeColor=none;fillColor=none;spacingLeft=4;spacingRight=4;overflow=hidden;rotatable=0;points=[[0,0.5],[1,0.5]];portConstraint=eastwest;fontSize=12;" vertex="1" parent="qwVRT2YLgjC-8CceZ_PS-1">
                    <mxGeometry y="86" width="160" height="30" as="geometry"/>
                </mxCell>
                <mxCell id="OuC0HDPPVQvj3nRevTK--1" value="Destination: string" style="text;strokeColor=none;fillColor=none;spacingLeft=4;spacingRight=4;overflow=hidden;rotatable=0;points=[[0,0.5],[1,0.5]];portConstraint=eastwest;fontSize=12;" vertex="1" parent="qwVRT2YLgjC-8CceZ_PS-1">
                    <mxGeometry y="116" width="160" height="30" as="geometry"/>
                </mxCell>
                <mxCell id="e-Q6PeIloXSxmlgIeM_C-1" value="Bus" style="swimlane;fontStyle=0;childLayout=stackLayout;horizontal=1;startSize=26;horizontalStack=0;resizeParent=1;resizeParentMax=0;resizeLast=0;collapsible=1;marginBottom=0;align=center;fontSize=14;" vertex="1" parent="1">
                    <mxGeometry x="60" y="300" width="160" height="206" as="geometry"/>
                </mxCell>
                <mxCell id="e-Q6PeIloXSxmlgIeM_C-2" value="PK id: integer" style="text;strokeColor=none;fillColor=none;spacingLeft=4;spacingRight=4;overflow=hidden;rotatable=0;points=[[0,0.5],[1,0.5]];portConstraint=eastwest;fontSize=12;" vertex="1" parent="e-Q6PeIloXSxmlgIeM_C-1">
                    <mxGeometry y="26" width="160" height="30" as="geometry"/>
                </mxCell>
                <mxCell id="e-Q6PeIloXSxmlgIeM_C-3" value="Plate Number: integer" style="text;strokeColor=none;fillColor=none;spacingLeft=4;spacingRight=4;overflow=hidden;rotatable=0;points=[[0,0.5],[1,0.5]];portConstraint=eastwest;fontSize=12;" vertex="1" parent="e-Q6PeIloXSxmlgIeM_C-1">
                    <mxGeometry y="56" width="160" height="30" as="geometry"/>
                </mxCell>
                <mxCell id="e-Q6PeIloXSxmlgIeM_C-4" value="Driver: string" style="text;strokeColor=none;fillColor=none;spacingLeft=4;spacingRight=4;overflow=hidden;rotatable=0;points=[[0,0.5],[1,0.5]];portConstraint=eastwest;fontSize=12;" vertex="1" parent="e-Q6PeIloXSxmlgIeM_C-1">
                    <mxGeometry y="86" width="160" height="30" as="geometry"/>
                </mxCell>
                <mxCell id="erriFrwTZKAHHw9kOPqg-1" value="Model: string" style="text;strokeColor=none;fillColor=none;spacingLeft=4;spacingRight=4;overflow=hidden;rotatable=0;points=[[0,0.5],[1,0.5]];portConstraint=eastwest;fontSize=12;" vertex="1" parent="e-Q6PeIloXSxmlgIeM_C-1">
                    <mxGeometry y="116" width="160" height="30" as="geometry"/>
                </mxCell>
                <mxCell id="0zyUyeoYAF3U7-2lMiQn-1" value="Capacity" style="text;strokeColor=none;fillColor=none;spacingLeft=4;spacingRight=4;overflow=hidden;rotatable=0;points=[[0,0.5],[1,0.5]];portConstraint=eastwest;fontSize=12;" vertex="1" parent="e-Q6PeIloXSxmlgIeM_C-1">
                    <mxGeometry y="146" width="160" height="30" as="geometry"/>
                </mxCell>
                <mxCell id="0zyUyeoYAF3U7-2lMiQn-2" value="Date: date" style="text;strokeColor=none;fillColor=none;spacingLeft=4;spacingRight=4;overflow=hidden;rotatable=0;points=[[0,0.5],[1,0.5]];portConstraint=eastwest;fontSize=12;" vertex="1" parent="e-Q6PeIloXSxmlgIeM_C-1">
                    <mxGeometry y="176" width="160" height="30" as="geometry"/>
                </mxCell>
                <mxCell id="e-Q6PeIloXSxmlgIeM_C-5" value="Bus Stop" style="swimlane;fontStyle=0;childLayout=stackLayout;horizontal=1;startSize=26;horizontalStack=0;resizeParent=1;resizeParentMax=0;resizeLast=0;collapsible=1;marginBottom=0;align=center;fontSize=14;" vertex="1" parent="1">
                    <mxGeometry x="490" y="300" width="160" height="176" as="geometry"/>
                </mxCell>
                <mxCell id="e-Q6PeIloXSxmlgIeM_C-6" value="PK id: integer" style="text;strokeColor=none;fillColor=none;spacingLeft=4;spacingRight=4;overflow=hidden;rotatable=0;points=[[0,0.5],[1,0.5]];portConstraint=eastwest;fontSize=12;" vertex="1" parent="e-Q6PeIloXSxmlgIeM_C-5">
                    <mxGeometry y="26" width="160" height="30" as="geometry"/>
                </mxCell>
                <mxCell id="e-Q6PeIloXSxmlgIeM_C-8" value="Order Number: integer" style="text;strokeColor=none;fillColor=none;spacingLeft=4;spacingRight=4;overflow=hidden;rotatable=0;points=[[0,0.5],[1,0.5]];portConstraint=eastwest;fontSize=12;" vertex="1" parent="e-Q6PeIloXSxmlgIeM_C-5">
                    <mxGeometry y="56" width="160" height="30" as="geometry"/>
                </mxCell>
                <mxCell id="cir8CWFSREXjjqCwt1G--1" value="City: string" style="text;strokeColor=none;fillColor=none;spacingLeft=4;spacingRight=4;overflow=hidden;rotatable=0;points=[[0,0.5],[1,0.5]];portConstraint=eastwest;fontSize=12;" vertex="1" parent="e-Q6PeIloXSxmlgIeM_C-5">
                    <mxGeometry y="86" width="160" height="30" as="geometry"/>
                </mxCell>
                <mxCell id="tWUI3A8_YxzrFG21YKQH-1" value="Adress: string" style="text;strokeColor=none;fillColor=none;spacingLeft=4;spacingRight=4;overflow=hidden;rotatable=0;points=[[0,0.5],[1,0.5]];portConstraint=eastwest;fontSize=12;" vertex="1" parent="e-Q6PeIloXSxmlgIeM_C-5">
                    <mxGeometry y="116" width="160" height="30" as="geometry"/>
                </mxCell>
                <mxCell id="-UtZCHag2-MLSkJgHEN0-1" value="Telephone Number: integer" style="text;strokeColor=none;fillColor=none;spacingLeft=4;spacingRight=4;overflow=hidden;rotatable=0;points=[[0,0.5],[1,0.5]];portConstraint=eastwest;fontSize=12;" vertex="1" parent="e-Q6PeIloXSxmlgIeM_C-5">
                    <mxGeometry y="146" width="160" height="30" as="geometry"/>
                </mxCell>
                <mxCell id="hcgukk1JEExpLeLImCkm-2" style="edgeStyle=orthogonalEdgeStyle;html=1;exitX=1;exitY=0.5;exitDx=0;exitDy=0;entryX=0;entryY=0.5;entryDx=0;entryDy=0;startArrow=ERmany;startFill=0;endArrow=ERone;endFill=0;" edge="1" parent="1" source="bGODFt96EP7Lw8mSYGCz-3" target="qwVRT2YLgjC-8CceZ_PS-2">
                    <mxGeometry relative="1" as="geometry"/>
                </mxCell>
                <mxCell id="hcgukk1JEExpLeLImCkm-3" style="edgeStyle=orthogonalEdgeStyle;html=1;exitX=0;exitY=0.5;exitDx=0;exitDy=0;entryX=0;entryY=0.5;entryDx=0;entryDy=0;startArrow=ERmany;startFill=0;endArrow=ERone;endFill=0;" edge="1" parent="1" source="bGODFt96EP7Lw8mSYGCz-4" target="e-Q6PeIloXSxmlgIeM_C-2">
                    <mxGeometry relative="1" as="geometry"/>
                </mxCell>
                <mxCell id="hcgukk1JEExpLeLImCkm-4" style="edgeStyle=orthogonalEdgeStyle;html=1;exitX=1;exitY=0.5;exitDx=0;exitDy=0;entryX=0;entryY=0.5;entryDx=0;entryDy=0;startArrow=ERmany;startFill=0;endArrow=ERone;endFill=0;" edge="1" parent="1" source="f6Qhm0uRsd_cvw-M96xo-1" target="e-Q6PeIloXSxmlgIeM_C-6">
                    <mxGeometry relative="1" as="geometry"/>
                </mxCell>
            </root>
        </mxGraphModel>
    </diagram>
</mxfile>